<?xml version="1.0" encoding="UTF-8"?>
<svg id="Layer_1" data-name="Layer 1" xmlns="http://www.w3.org/2000/svg" viewBox="0 0 617.85 163">
  <defs>
    <style>
      .cls-1 {
        fill: #fff;
      }

      .cls-2 {
        letter-spacing: -.05em;
      }

      .cls-3 {
        letter-spacing: -.06em;
      }

      .cls-4 {
        fill: #339af0;
      }

      .cls-5 {
        letter-spacing: -.06em;
      }

      .cls-6 {
        letter-spacing: -.06em;
      }

      .cls-7 {
        letter-spacing: -.07em;
      }

      .cls-8 {
        letter-spacing: -.05em;
      }

      .cls-9 {
        font-family: SourceSansRoman-Bold, 'Source Sans Variable';
        font-size: 75.89px;
        font-variation-settings: 'wght' 700;
        font-weight: 700;
      }

      .cls-10 {
        letter-spacing: -.09em;
      }
    </style>
  </defs>
  <path class="cls-4" d="m162.16,81.5C162.16,36.49,125.86,0,81.08,0S0,36.49,0,81.5s36.3,81.5,81.08,81.5,81.08-36.49,81.08-81.5Z"/>
  <path class="cls-1" d="m65.98,43.05c-1.49,2.02-1.62,4.73-.34,6.88.42.7.97,1.3,1.62,1.79,9.44,7.04,14.87,17.79,14.87,29.52s-5.42,22.48-14.87,29.52c-.65.48-1.2,1.09-1.62,1.79-.84,1.41-1.09,3.1-.69,4.69.2.79.55,1.53,1.03,2.19,1.48,2.01,4.03,2.93,6.46,2.32.79-.2,1.53-.55,2.18-1.04,2.91-2.17,5.57-4.65,7.95-7.39h17.49c3.41,0,6.17-2.77,6.17-6.19s-2.76-6.19-6.17-6.19h-9.65c2.7-6.21,4.08-12.92,4.07-19.69.01-6.77-1.37-13.48-4.07-19.69h9.66c3.41,0,6.17-2.77,6.17-6.19s-2.76-6.19-6.17-6.19h-17.49c-2.37-2.75-5.04-5.23-7.95-7.4-1.31-.98-2.96-1.39-4.58-1.15-1.62.24-3.08,1.12-4.06,2.44,0,0,0,0,0,0Z"/>
  <text class="cls-9" transform="translate(170.85 109.42)"><tspan class="cls-10" x="0" y="0">P</tspan><tspan class="cls-2" x="38.63" y="0">a</tspan><tspan class="cls-3" x="74.6" y="0">r</tspan><tspan class="cls-2" x="100.02" y="0">c in</tspan><tspan class="cls-5" x="198.9" y="0">v</tspan><tspan class="cls-8" x="233.96" y="0">en</tspan><tspan class="cls-7" x="308.64" y="0">t</tspan><tspan class="cls-8" x="332.17" y="0">ai</tspan><tspan class="cls-6" x="385.06" y="0">r</tspan><tspan class="cls-8" x="410.48" y="0">e</tspan></text>
</svg>